<svg version="1.1" xmlns="http://www.w3.org/2000/svg" xmlns:xlink="http://www.w3.org/1999/xlink"
	 viewBox="0 0 432 229.5">
<polyline fill="none" stroke="#22313F" stroke-width="9" stroke-miterlimit="10" points="416.5,19.8 21.6,19.8 21.6,209.5 "/>
<g>
	<g>
		<line fill="none" stroke="#969696" stroke-width="3" stroke-miterlimit="10" x1="21.6" y1="209.5" x2="27.6" y2="209.5"/>

			<line fill="none" stroke="#969696" stroke-width="3" stroke-miterlimit="10" stroke-dasharray="12.3507,12.3507" x1="40" y1="209.5" x2="404.3" y2="209.5"/>
		<polyline fill="none" stroke="#969696" stroke-width="3" stroke-miterlimit="10" points="410.5,209.5 416.5,209.5 416.5,203.5
			"/>

			<line fill="none" stroke="#969696" stroke-width="3" stroke-miterlimit="10" stroke-dasharray="11.8496,11.8496" x1="416.5" y1="191.7" x2="416.5" y2="31.7"/>
		<line fill="none" stroke="#969696" stroke-width="3" stroke-miterlimit="10" x1="416.5" y1="25.8" x2="416.5" y2="19.8"/>
	</g>
</g>
<g>
	<path d="M45,49.6L45,49.6c0-5.1,3-9.5,7.7-9.5s7.6,4.3,7.6,9.4v0.1c0,5.1-3,9.4-7.7,9.4C48,59,45,54.7,45,49.6z M58.3,49.6
		L58.3,49.6c0-4-2.2-7.6-5.6-7.6c-3.4,0-5.5,3.5-5.5,7.5v0.1c0,4,2.2,7.5,5.6,7.5C56.2,57.1,58.3,53.6,58.3,49.6z"/>
	<path d="M62.7,60.9c1.3-0.5,1.8-1.1,1.7-2.3h-0.9v-2.7h2.4v2.3c0,2.1-0.9,3.1-2.9,3.6L62.7,60.9z"/>
	<path d="M77.3,49.6L77.3,49.6c0-5.1,3-9.5,7.7-9.5s7.6,4.3,7.6,9.4v0.1c0,5.1-3,9.4-7.7,9.4C80.2,59,77.3,54.7,77.3,49.6z
		 M90.5,49.6L90.5,49.6c0-4-2.2-7.6-5.6-7.6c-3.4,0-5.5,3.5-5.5,7.5v0.1c0,4,2.2,7.5,5.6,7.5S90.5,53.6,90.5,49.6z"/>
</g>
<g>
	<path d="M45,182L45,182c0-5.1,3-9.5,7.7-9.5s7.6,4.3,7.6,9.4v0.1c0,5.1-3,9.4-7.7,9.4C48,191.4,45,187.1,45,182z M58.3,182
		L58.3,182c0-4-2.2-7.6-5.6-7.6c-3.4,0-5.5,3.5-5.5,7.5v0.1c0,4,2.2,7.5,5.6,7.5C56.2,189.5,58.3,186,58.3,182z"/>
	<path d="M62.7,193.3c1.3-0.5,1.8-1.1,1.7-2.3h-0.9v-2.7h2.4v2.3c0,2.1-0.9,3.1-2.9,3.6L62.7,193.3z"/>
	<path d="M80.3,174.9l-3.4,1.1l-0.5-1.7l4.4-1.5h1.5v18.3h-2V174.9z"/>
	<path d="M89.6,174.9l-3.4,1.1l-0.5-1.7l4.4-1.5h1.5v18.3h-2V174.9z"/>
	<path d="M95.9,182L95.9,182c0-5.1,3-9.5,7.7-9.5s7.6,4.3,7.6,9.4v0.1c0,5.1-3,9.4-7.7,9.4C98.9,191.4,95.9,187.1,95.9,182z
		 M109.1,182L109.1,182c0-4-2.2-7.6-5.6-7.6c-3.4,0-5.5,3.5-5.5,7.5v0.1c0,4,2.2,7.5,5.6,7.5S109.1,186,109.1,182z"/>
</g>
<g>
	<path d="M319.4,57.1l6.6-5.8c2.8-2.5,3.8-3.9,3.8-5.7c0-2.1-1.7-3.5-3.7-3.5c-2.1,0-3.4,1.1-4.9,3.1l-1.5-1.1
		c1.6-2.4,3.4-3.9,6.6-3.9c3.3,0,5.6,2.2,5.6,5.1v0.1c0,2.7-1.4,4.3-4.6,7.1l-4.9,4.3h9.6v1.9h-12.7V57.1z"/>
	<path d="M335.4,49.6L335.4,49.6c0-5.1,3-9.5,7.7-9.5c4.7,0,7.6,4.3,7.6,9.4v0.1c0,5.1-3,9.4-7.7,9.4
		C338.3,59,335.4,54.7,335.4,49.6z M348.6,49.6L348.6,49.6c0-4-2.2-7.6-5.6-7.6c-3.4,0-5.5,3.5-5.5,7.5v0.1c0,4,2.2,7.5,5.6,7.5
		S348.6,53.6,348.6,49.6z"/>
	<path d="M354.4,56.8l1.2-1.6c1.5,1.3,2.9,2,4.5,2c3.3,0,5.5-3.3,5.4-8c-1,1.6-2.6,2.9-5.1,2.9c-3.7,0-6.3-2.4-6.3-5.6v-0.1
		c0-3.5,2.7-6.2,6.6-6.2c2.1,0,3.6,0.7,4.8,1.9c1.4,1.4,2.3,3.4,2.3,7v0.1c0,5.8-3.1,9.9-7.6,9.9C357.6,59,355.9,58,354.4,56.8z
		 M365.1,46.2L365.1,46.2c0-2.4-1.9-4.2-4.6-4.2c-2.7,0-4.4,2-4.4,4.3v0.1c0,2.3,1.8,4,4.5,4C363.3,50.3,365.1,48.3,365.1,46.2z"/>
	<path d="M370.1,60.9c1.3-0.5,1.8-1.1,1.7-2.3h-0.9v-2.7h2.4v2.3c0,2.1-0.9,3.1-2.9,3.6L370.1,60.9z"/>
	<path d="M384.7,49.6L384.7,49.6c0-5.1,3-9.5,7.7-9.5c4.7,0,7.6,4.3,7.6,9.4v0.1c0,5.1-3,9.4-7.7,9.4
		C387.6,59,384.7,54.7,384.7,49.6z M397.9,49.6L397.9,49.6c0-4-2.2-7.6-5.6-7.6c-3.4,0-5.5,3.5-5.5,7.5v0.1c0,4,2.2,7.5,5.6,7.5
		S397.9,53.6,397.9,49.6z"/>
</g>
<circle fill="#F64747" cx="21.8" cy="19.5" r="6.3"/>
<circle fill="#F64747" cx="416.8" cy="19.5" r="6.3"/>
<circle fill="#F64747" cx="21.8" cy="210.5" r="6.3"/>
</svg>
