<?xml version="1.0" encoding="UTF-8" standalone="no"?>
<svg width="275px" height="698px" viewBox="0 0 275 698" version="1.1" xmlns="http://www.w3.org/2000/svg" xmlns:xlink="http://www.w3.org/1999/xlink" xmlns:sketch="http://www.bohemiancoding.com/sketch/ns">
    <!-- Generator: Sketch 3.1.1 (8761) - http://www.bohemiancoding.com/sketch -->
    <title>Slice 2</title>
    <desc>Created with Sketch.</desc>
    <defs></defs>
    <g id="Page-1" stroke="none" stroke-width="1" fill="none" fill-rule="evenodd" sketch:type="MSPage">
        <g id="manhattanjs-logo-sketch" sketch:type="MSLayerGroup" transform="translate(5.000000, 2.000000)">
            <g id="Group" transform="translate(137.000000, 20.000000)" fill="#C7E6D7" sketch:type="MSShapeGroup">
                <rect id="Rectangle-path" x="94" y="163" width="5.8" height="5.8"></rect>
                <path d="M80.168,94.824 L78.834,81.755 L70.817,91.141 C73.86,91.956 76.969,93.156 80.168,94.824 L80.168,94.824 L80.168,94.824 Z" id="Shape"></path>
                <path d="M69.551,90.823 L67.155,75.739 L58.226,89.703 C61.671,89.656 65.467,89.856 69.569,90.823 L69.551,90.823 L69.551,90.823 Z" id="Shape"></path>
                <path d="M53.194,79.719 L50.352,90.578 C52.284,90.199 54.513,89.883 56.976,89.75 L53.194,79.719 L53.194,79.719 Z" id="Shape"></path>
                <rect id="Rectangle-path" x="100" y="229" width="9.701" height="3.9"></rect>
                <rect id="Rectangle-path" x="96" y="179" width="11.7" height="5.8"></rect>
                <rect id="Rectangle-path" x="96" y="210" width="11.7" height="3.9"></rect>
                <path d="M84.624,125.621 L82.767,110.703 L69.656,118.894 C74.47,120.056 79.469,122.156 84.671,125.621 L84.624,125.621 L84.624,125.621 Z" id="Shape"></path>
                <rect id="Rectangle-path" x="96" y="194" width="11.7" height="5.8"></rect>
                <rect id="Rectangle-path" x="6" y="177" width="9.701" height="5.8"></rect>
                <rect id="Rectangle-path" x="6" y="241" width="9.701" height="5.8"></rect>
                <path d="M29.825,152.005 L34.215,164.076 C35.128,162.471 37.343,158.891 40.72,155.238 L29.825,152.005 L29.825,152.005 Z" id="Shape"></path>
                <path d="M41.709,136.715 L42.893,153.06 C45.275,150.827 48.088,148.743 51.307,147.235 L41.709,136.715 L41.709,136.715 Z" id="Shape"></path>
                <rect id="Rectangle-path" x="6" y="229" width="9.701" height="3.9"></rect>
                <path d="M67.918,118.502 L63.896,104.394 L52.576,118.3 C57.259,117.556 62.471,117.356 67.869,118.502 L67.918,118.502 L67.918,118.502 Z" id="Shape"></path>
                <rect id="Rectangle-path" x="90" y="264" width="23.399" height="9.7"></rect>
                <path d="M45.692,105.724 L43.286,120.834 C45.59,119.956 48.118,119.189 50.831,118.626 L45.692,105.724 L45.692,105.724 Z" id="Shape"></path>
                <rect id="Rectangle-path" x="6" y="210" width="9.701" height="3.9"></rect>
                <rect id="Rectangle-path" x="6" y="188" width="9.701" height="7.8"></rect>
                <path d="M31.669,338.356 L6.368,338.356 L6.368,342.456 L6.769,348.156 L31.669,348.156 L31.669,338.356 Z" id="Shape"></path>
                <path d="M37.569,566.156 L22.069,566.156 L22.669,575.856 L37.569,575.856 L37.569,566.156 Z" id="Shape"></path>
                <path d="M35.569,515.557 L18.969,515.557 L19.569,525.256 L35.569,525.256 L35.569,515.557 Z" id="Shape"></path>
                <path d="M39.469,591.456 L23.868,591.456 L23.868,596.756 L24.269,603.156 L39.469,603.156 L39.469,591.456 Z" id="Shape"></path>
                <path d="M39.469,634.256 L26.169,634.256 L26.669,642.057 L39.469,642.057 L39.469,634.256 Z" id="Shape"></path>
                <path d="M60.336,130.873 L53.898,146.195 C55.345,145.703 56.845,145.307 58.429,145.107 C61.103,144.772 63.793,144.942 66.529,145.607 L60.336,130.873 L60.336,130.873 Z" id="Shape"></path>
                <path d="M39.469,614.856 L24.969,614.856 L25.469,622.656 L39.469,622.656 L39.469,614.856 Z" id="Shape"></path>
                <path d="M31.669,316.956 L4.669,316.956 L4.868,321.356 L5.069,324.756 L31.669,324.756 L31.669,316.956 Z" id="Shape"></path>
                <path d="M29.769,389.057 L10.269,389.057 L10.269,395.456 L10.569,398.756 L29.769,398.756 L29.769,389.057 Z" id="Shape"></path>
                <path d="M29.769,272.256 L3.269,272.256 L3.469,279.956 L29.769,279.956 L29.769,272.256 Z" id="Shape"></path>
                <rect id="Rectangle-path" x="96" y="510" width="11.7" height="7.802"></rect>
                <rect id="Rectangle-path" x="94" y="286" width="17.5" height="9.7"></rect>
                <rect id="Rectangle-path" x="94" y="327" width="17.5" height="9.7"></rect>
                <rect id="Rectangle-path" x="94" y="375" width="15.601" height="9.7"></rect>
                <rect id="Rectangle-path" x="94" y="309" width="17.5" height="7.8"></rect>
                <rect id="Rectangle-path" x="92" y="354" width="17.5" height="7.8"></rect>
                <rect id="Rectangle-path" x="94" y="482" width="13.601" height="9.7"></rect>
                <rect id="Rectangle-path" x="94" y="401" width="15.601" height="9.7"></rect>
                <rect id="Rectangle-path" x="94" y="449" width="13.601" height="7.8"></rect>
                <rect id="Rectangle-path" x="94" y="422" width="15.601" height="9.698"></rect>
                <path d="M81.499,154.122 L80.36,136.681 L69.422,146.468 C73.443,147.956 77.468,150.456 81.468,154.122 L81.499,154.122 L81.499,154.122 Z" id="Shape"></path>
                <rect id="Rectangle-path" x="65" y="192" width="3.9" height="5.8"></rect>
                <path d="M75.368,237.356 L89.368,642.057 L92.368,642.057 L82.269,237.456 L75.368,237.356 Z" id="Shape"></path>
                <rect id="Rectangle-path" x="65" y="208" width="3.9" height="5.8"></rect>
                <rect id="Rectangle-path" x="65" y="163" width="3.9" height="5.8"></rect>
                <rect id="Rectangle-path" x="18" y="490" width="17.5" height="7.802"></rect>
                <rect id="Rectangle-path" x="65" y="177" width="3.9" height="5.8"></rect>
                <rect id="Rectangle-path" x="22" y="537" width="15.601" height="7.8"></rect>
                <path d="M39.969,239.656 L56.169,638.156 L63.469,638.156 L47.069,239.156 L39.969,239.656 Z" id="Shape"></path>
                <rect id="Rectangle-path" x="18" y="465" width="17.5" height="7.8"></rect>
                <rect id="Rectangle-path" x="16" y="360" width="15.601" height="9.7"></rect>
                <path d="M56.669,238.656 L73.169,639.456 L78.469,638.656 L63.169,237.456 L56.669,238.656 Z" id="Shape"></path>
                <rect id="Rectangle-path" x="16" y="416" width="15.601" height="7.802"></rect>
                <path d="M97.877,644.031 L97.877,632.35 L104.944,632.35 L105.286,624.563 L97.877,624.563 L97.877,612.882 L105.796,612.882 L106.053,607.04 L97.877,607.04 L97.877,595.36 L106.565,595.36 L106.905,587.574 L97.878,587.574 L97.878,572 L107.589,572 L108.015,562.268 L99.826,562.268 L99.826,550.586 L108.527,550.586 L108.783,544.747 L97.88,544.747 L97.88,533.066 L109.295,533.066 L125.383,165.626 L106.933,163.14 L84.789,64.716 L71.263,59.867 L70.03,-0.333 L62.647,-0.333 L56.5,61.962 L40.508,61.962 L18.364,167.086 L-0.091,167.086 L3.202,270.261 L31.692,270.261 L31.692,281.941 L3.575,281.941 L3.887,291.675 L33.638,291.675 L33.638,307.248 L4.384,307.248 L4.63,315.035 L33.638,315.035 L33.638,326.717 L5.228,326.717 L5.943,336.449 L33.638,336.449 L33.638,350.076 L6.947,350.076 L9.666,387.076 L31.693,387.076 L31.693,400.704 L10.669,400.704 L14.173,448.416 L14.173,435.745 L33.641,435.745 L33.641,449.373 L14.245,449.373 L17.105,488.308 L37.536,488.308 L37.536,499.988 L17.968,499.988 L18.368,505.487 L18.86,513.587 L37.536,513.587 L37.536,527.215 L19.687,527.215 L20.161,535 L39.481,535 L39.481,546.684 L20.87,546.684 L21.933,564.204 L39.481,564.204 L39.481,577.831 L22.759,577.831 L23.465,589.514 L41.428,589.514 L41.428,605.085 L24.41,605.085 L24.885,612.873 L41.428,612.873 L41.428,624.553 L25.59,624.553 L26.064,632.339 L41.427,632.339 L41.427,644.023 L26.775,644.023 L28.207,667.656 L103.248,671.253 L104.439,644.024 L97.877,644.024 L97.877,644.031 L97.877,644.031 Z M109.557,519.441 L93.984,519.441 L93.984,507.757 L109.557,507.757 L109.557,519.441 L109.557,519.441 Z M109.557,494.133 L92.038,494.133 L92.038,480.507 L109.557,480.507 L109.557,494.133 L109.557,494.133 Z M109.557,459.094 L92.038,459.094 L92.038,447.413 L109.557,447.413 L109.557,459.094 L109.557,459.094 Z M111.504,433.786 L92.038,433.786 L92.038,420.159 L111.504,420.159 L111.504,433.786 L111.504,433.786 Z M111.504,412.372 L92.038,412.372 L92.038,398.745 L111.504,398.745 L111.504,412.372 L111.504,412.372 Z M111.504,387.064 L92.038,387.064 L92.038,373.438 L111.504,373.438 L111.504,387.064 L111.504,387.064 Z M111.504,363.705 L90.09,363.705 L90.09,352.024 L111.504,352.024 L111.504,363.705 L111.504,363.705 Z M113.45,338.396 L92.038,338.396 L92.038,324.77 L113.45,324.77 L113.45,338.396 L113.45,338.396 Z M113.45,318.929 L92.038,318.929 L92.038,307.249 L113.45,307.249 L113.45,318.929 L113.45,318.929 Z M113.45,297.516 L92.038,297.516 L92.038,283.889 L113.45,283.889 L113.45,297.516 L113.45,297.516 Z M115.397,276.103 L88.143,276.103 L88.143,262.476 L115.397,262.476 L115.397,276.103 L115.397,276.103 Z M111.504,235.221 L97.877,235.221 L97.877,227.434 L111.504,227.434 L111.504,235.221 L111.504,235.221 Z M109.557,207.968 L109.557,215.755 L93.984,215.755 L93.984,207.968 L109.557,207.968 L109.557,207.968 Z M93.983,202.128 L93.983,192.394 L109.556,192.394 L109.556,202.128 L93.983,202.128 L93.983,202.128 Z M109.557,176.821 L109.557,186.554 L93.984,186.554 L93.984,176.821 L109.557,176.821 L109.557,176.821 Z M101.771,170.98 L92.039,170.98 L92.039,161.247 L101.771,161.247 L101.771,170.98 L101.771,170.98 Z M47.469,90.66 L52.719,70.613 L58.073,84.809 L68.745,68.108 L71.583,85.983 L80.929,75.036 L83.124,96.532 C84.497,97.432 85.823,98.332 87.224,99.452 L85.507,101.624 C65.402,85.731 44.044,95.239 43.833,95.34 L42.678,92.823 C42.745,92.791 44.952,91.812 48.581,90.955 L47.469,90.66 L47.469,90.66 Z M42.875,120.992 L40.519,120.619 L44.54,95.351 L52.144,114.444 L65.1,98.527 L69.928,115.46 L84.975,106.057 L87.684,127.817 C89.91,129.517 92.184,131.417 94.384,133.697 L92.426,135.655 C61.396,104.62 32.048,130.001 30.812,131.098 L28.971,129.03 C29.105,128.956 34.469,124.256 42.868,120.992 L42.875,120.992 L42.875,120.992 Z M4.435,174.873 L18.062,174.873 L18.062,184.607 L4.435,184.607 L4.435,174.873 L4.435,174.873 Z M4.435,186.556 L18.062,186.556 L18.062,198.237 L4.435,198.237 L4.435,186.553 L4.435,186.556 L4.435,186.556 Z M4.435,207.968 L18.062,207.968 L18.062,215.755 L4.435,215.755 L4.435,207.968 L4.435,207.968 Z M4.435,227.435 L18.062,227.435 L18.062,235.222 L4.435,235.222 L4.435,227.435 L4.435,227.435 Z M4.435,239.115 L18.062,239.115 L18.062,248.849 L4.435,248.849 L4.435,239.115 L4.435,239.115 Z M27.796,230.062 L27.796,260.529 L8.329,260.529 L8.329,258.582 L25.849,258.582 L25.849,228.409 L83.208,219.063 L84.026,160.561 C75.462,151.092 66.966,146.826 58.776,147.854 C45.845,149.489 37.467,163.895 36.331,165.965 L32.661,225.324 L29.894,225.153 L33.603,165.198 L33.737,164.94 C33.741,164.932 33.759,164.897 33.764,164.885 L31.821,165.593 L25.345,147.787 L40.05,152.152 L38.367,128.946 L51.902,143.746 L60.337,123.674 L68.609,143.438 L82.751,130.783 L84.453,156.937 C85.119,157.637 85.754,158.337 86.453,159.077 L86.809,159.477 L85.982,218.567 L90.089,217.898 L90.089,245.764 L111.066,245.988 L111.25,247.935 L88.146,247.692 L88.146,220.187 L27.796,230.062 L27.796,230.062 Z M55.049,180.714 L55.049,188.5 L49.21,188.5 L49.21,180.714 L55.049,180.714 L55.049,180.714 Z M49.21,172.927 L49.21,165.14 L55.049,165.14 L55.049,172.927 L49.21,172.927 L49.21,172.927 Z M55.049,196.287 L55.049,202.127 L49.21,202.127 L49.21,196.287 L55.049,196.287 L55.049,196.287 Z M55.049,207.968 L55.049,217.701 L49.21,217.701 L49.21,207.968 L55.049,207.968 L55.049,207.968 Z M70.624,174.873 L70.624,184.607 L62.837,184.607 L62.837,174.873 L70.624,174.873 L70.624,174.873 Z M62.837,170.98 L62.837,161.247 L70.624,161.247 L70.624,170.98 L62.837,170.98 L62.837,170.98 Z M70.624,190.447 L70.624,200.181 L62.837,200.181 L62.837,190.447 L70.624,190.447 L70.624,190.447 Z M70.624,206.021 L70.624,215.754 L62.837,215.754 L62.837,206.021 L70.624,206.021 L70.624,206.021 Z M14.168,371.491 L14.168,357.864 L33.636,357.864 L33.636,371.491 L14.168,371.491 L14.168,371.491 Z M14.168,425.999 L14.168,414.319 L33.636,414.319 L33.636,425.999 L14.168,425.999 L14.168,425.999 Z M37.53,474.666 L16.116,474.666 L16.116,462.987 L37.53,462.987 L37.53,474.666 L37.53,474.666 Z M54.329,640.137 L37.948,237.857 L48.967,237.099 L49.01,238.099 L65.513,640.139 L54.329,640.137 L54.329,640.137 Z M70.563,642.633 L70.501,641.087 L53.844,236.399 L65.823,234.201 L81.313,641.001 L70.563,642.633 L70.563,642.633 Z M87.538,644.031 L87.505,643.091 L73.329,235.417 L84.206,235.47 L84.228,236.415 L94.405,644.031 L87.538,644.031 L87.538,644.031 Z" id="Shape"></path>
                <path d="M99.868,642.057 L104.569,642.057 L104.868,634.256 L99.868,634.256 L99.868,642.057 Z" id="Shape"></path>
                <path d="M99.868,542.756 L108.868,542.756 L109.169,535.057 L99.868,535.057 L99.868,542.756 Z" id="Shape"></path>
                <path d="M99.868,585.656 L106.969,585.656 L107.469,573.956 L99.868,573.956 L99.868,585.656 Z" id="Shape"></path>
                <rect id="Rectangle-path" x="50" y="198" width="1.899" height="1.9"></rect>
                <path d="M99.868,605.057 L106.169,605.057 L106.469,597.356 L99.868,597.356 L99.868,605.057 Z" id="Shape"></path>
                <rect id="Rectangle-path" x="50" y="167" width="1.899" height="3.9"></rect>
                <path d="M99.868,622.656 L105.368,622.656 L105.669,614.856 L99.868,614.856 L99.868,622.656 Z" id="Shape"></path>
                <rect id="Rectangle-path" x="4" y="294" width="27.3" height="11.7"></rect>
                <rect id="Rectangle-path" x="16" y="438" width="15.601" height="9.7"></rect>
                <rect id="Rectangle-path" x="50" y="183" width="1.899" height="3.9"></rect>
                <rect id="Rectangle-path" x="51" y="210" width="1.9" height="5.8"></rect>
                <path d="M101.769,560.356 L108.069,560.356 L108.469,552.557 L101.769,552.557 L101.769,560.356 Z" id="Shape"></path>
            </g>
            <path d="M138.352,11.326 C138.262,11.326 138.081,11.186 137.953,11.095 C137.953,11.05 137.953,11.05 137.898,11.05 C137.365,7.906 133.408,5.524 130.033,4.892 C129.992,4.892 129.771,4.892 129.721,4.85 C129.589,4.807 129.409,4.763 129.272,4.714 C127.837,1.703 124.731,-0.406 121.141,-0.406 C116.316,-0.406 111.862,3.407 111.802,8.129 C111.792,8.13 111.783,8.13 111.772,8.131 C111.673,6.16 108.56,4.85 106.17,4.85 C102.034,4.85 98.391,8.536 98.391,13.076 C98.391,13.167 98.345,13.3 98.217,13.389 C97.539,10.419 91.828,8.58 87.607,8.58 C80.103,8.58 74.125,13.86 74.125,21.363 C74.125,27.532 78.232,33.405 83.736,33.628 C83.439,34.434 83.273,35.287 83.273,36.171 C83.273,41.136 88.308,45.162 94.519,45.162 C95.634,45.162 96.709,45.028 97.727,44.785 C99.707,47.369 102.558,49.301 106.036,49.301 C110.488,49.301 114.237,46.923 115.994,43.145 C118.058,46.52 121.785,48.897 126.045,48.897 C132.699,48.897 138.063,43.145 138.063,36.493 C138.063,33.796 137.129,33.302 135.556,28.806 C136.457,28.806 137.45,29.798 138.487,29.798 C143.606,29.798 147.745,26.153 147.745,21.072 C147.743,15.948 143.473,11.326 138.352,11.326 L138.352,11.326 Z" id="Shape" fill="#E33E57" sketch:type="MSShapeGroup"></path>
            <path d="M56.684,59.413 C56.592,59.413 56.461,59.278 56.325,59.189 C56.325,59.147 56.325,59.147 56.279,59.147 C55.783,56.36 52.32,54.294 49.358,53.703 C49.311,53.703 49.085,53.703 49.042,53.664 C48.949,53.664 48.773,53.618 48.684,53.573 C47.375,50.918 44.327,49.034 41.176,49.034 C37.379,49.034 33.683,51.724 32.787,55.273 C32.645,55.388 32.505,55.503 32.378,55.632 C32.342,55.655 32.304,55.664 32.272,55.688 C31.604,54.422 29.672,53.664 27.915,53.664 C24.228,53.664 21.22,56.943 21.22,60.943 C21.22,61.002 21.185,61.058 21.16,61.115 C20.936,61.067 20.704,61.045 20.468,61.041 C19.588,58.545 15.148,56.991 11.561,56.991 C4.859,56.991 -0.221,61.189 -0.221,67.841 C-0.221,72.326 2.384,76.381 6.03,77.752 C5.334,78.843 4.935,80.055 4.935,81.337 C4.935,86.055 10.198,89.88 16.69,89.88 C17.915,89.88 19.096,89.744 20.207,89.49 C22.079,91.281 24.731,92.661 27.289,92.661 C31.197,92.661 34.975,90.692 36.505,87.363 C38.345,90.332 41.853,92.494 45.579,92.494 C51.47,92.494 56.325,87.461 56.325,81.574 C56.325,79.19 55.562,78.832 54.166,74.833 C54.976,74.833 55.874,75.73 56.771,75.73 C61.312,75.73 64.954,72.492 64.954,67.998 C64.954,63.505 61.221,59.413 56.684,59.413 L56.684,59.413 Z" id="Shape" fill="#E33E57" sketch:type="MSShapeGroup"></path>
        </g>
    </g>
</svg>