<svg xmlns="http://www.w3.org/2000/svg" viewBox="0 0 290.1 290.1" height="20" width="20">
  <title>Codepen</title>
  <path d="M289.9,99.2c0-0.2-0.1-0.4-0.1-0.5c-0.1-0.4-0.1-0.7-0.2-1c-0.1-0.2-0.1-0.4-0.2-0.6c-0.1-0.3-0.2-0.6-0.3-0.9
c-0.1-0.2-0.2-0.4-0.3-0.6c-0.1-0.3-0.3-0.6-0.4-0.8c-0.1-0.2-0.2-0.4-0.4-0.6c-0.2-0.3-0.3-0.5-0.5-0.8c-0.1-0.2-0.3-0.4-0.4-0.5
c-0.2-0.2-0.4-0.5-0.6-0.7c-0.2-0.2-0.3-0.3-0.5-0.5c-0.2-0.2-0.5-0.4-0.7-0.6c-0.2-0.1-0.4-0.3-0.6-0.4c-0.1,0-0.1-0.1-0.2-0.2
L151.9,2.1c-4.2-2.8-9.6-2.8-13.8,0L5.5,90.5c-0.1,0-0.1,0.1-0.2,0.2C5.1,90.8,5,90.9,4.8,91c-0.2,0.2-0.5,0.4-0.7,0.6
c-0.2,0.2-0.3,0.3-0.5,0.5c-0.2,0.2-0.4,0.4-0.6,0.7c-0.1,0.2-0.3,0.4-0.4,0.5c-0.2,0.2-0.4,0.5-0.5,0.8c-0.1,0.2-0.2,0.4-0.4,0.6
c-0.2,0.3-0.3,0.5-0.4,0.8c-0.1,0.2-0.2,0.4-0.3,0.6c-0.1,0.3-0.2,0.6-0.3,0.9c-0.1,0.2-0.1,0.4-0.2,0.6c-0.1,0.3-0.2,0.7-0.2,1
c0,0.2-0.1,0.4-0.1,0.5C0,99.7,0,100.3,0,100.8v88.4c0,0.5,0,1.1,0.1,1.6c0,0.2,0.1,0.4,0.1,0.5c0.1,0.4,0.1,0.7,0.2,1
c0.1,0.2,0.1,0.4,0.2,0.6c0.1,0.3,0.2,0.6,0.3,0.9c0.1,0.2,0.2,0.4,0.3,0.6c0.1,0.3,0.3,0.6,0.4,0.8c0.1,0.2,0.2,0.4,0.4,0.6
c0.2,0.3,0.3,0.5,0.5,0.8c0.1,0.2,0.3,0.4,0.4,0.5c0.2,0.2,0.4,0.5,0.6,0.7c0.2,0.2,0.3,0.3,0.5,0.5c0.2,0.2,0.5,0.4,0.7,0.6
c0.2,0.1,0.4,0.3,0.6,0.4c0.1,0,0.1,0.1,0.2,0.2L138.1,288c2.1,1.4,4.5,2.1,6.9,2.1c2.4,0,4.8-0.7,6.9-2.1l132.6-88.4
c0.1,0,0.1-0.1,0.2-0.2c0.2-0.1,0.4-0.3,0.6-0.4c0.2-0.2,0.5-0.4,0.7-0.6c0.2-0.2,0.3-0.3,0.5-0.5c0.2-0.2,0.4-0.4,0.6-0.7
c0.1-0.2,0.3-0.4,0.4-0.5c0.2-0.2,0.4-0.5,0.5-0.8c0.1-0.2,0.2-0.4,0.4-0.6c0.2-0.3,0.3-0.5,0.4-0.8c0.1-0.2,0.2-0.4,0.3-0.6
c0.1-0.3,0.2-0.6,0.3-0.9c0.1-0.2,0.1-0.4,0.2-0.6c0.1-0.3,0.2-0.7,0.2-1c0-0.2,0.1-0.4,0.1-0.5c0.1-0.5,0.1-1.1,0.1-1.6v-88.4
C290.1,100.3,290,99.7,289.9,99.2z M157.5,35.8l97.7,65.1L211.5,130l-54-36.1V35.8z M132.6,35.8v58.1l-54,36.1l-43.6-29.2
L132.6,35.8z M24.9,124.2L56.1,145l-31.2,20.9V124.2z M132.6,254.3l-97.7-65.1L78.5,160l54,36.1V254.3z M145,174.5L100.9,145
l44.1-29.5l44.1,29.5L145,174.5z M157.5,254.3v-58.1l54-36.1l43.6,29.2L157.5,254.3z M265.1,165.9L233.9,145l31.2-20.9V165.9z"
  />
</svg>