<svg class="logo" xmlns="https://www.w3.org/2000/svg" viewBox="0 0 288.3 152.8" height="212" width="400">
  <title>Brenda Storer</title>
  <linearGradient id="gradient" gradientUnits="userSpaceOnUse" x1="144.147" y1="-8.9282" x2="144.147" y2="232.8967">
    <stop offset="1%" stop-color="rgb(94, 73, 155)" />
    <stop offset="80%" stop-color="rgb(6, 129, 177)" />
  </linearGradient>
  <path
    fill="url(#gradient)"
    d="M19.5,113.9c-9.5-1.5-16.3-7.7-16.3-16.6c0-9,7.3-15.6,16.2-15.6c8.2,0,14.9,6,16.1,13.7l1.8-0.2
    c-1.4-8.7-8.7-15.3-17.8-15.3c-9.8,0-17.9,7.4-17.9,17.3s7.3,16.8,17.7,18.4c11.4,1.8,17.9,7.9,17.9,17.6
    c0,9.8-7.9,17.7-17.7,17.7c-9.2,0-16.9-7.2-17.6-16.4L0,134.7c0.7,10,9.1,18,19.4,18c10.8,0,19.5-8.7,19.5-19.5
    C38.8,122.6,31.7,115.8,19.5,113.9z M167.8,115h6.5c9.3,0,16.8-7.6,16.8-16.8c0-9.3-7.5-16.8-16.8-16.8h-21v1.8h3v66.6h-3v1.8h7.8
    v-1.8h-3V115h0.3c18.5,1.2,33,16.2,33.4,34.7h-2.1v1.8h6.3v-1.8h-2.4C193.1,133.5,182.5,119.8,167.8,115z M158.1,113.2V83.1h16.3
    c8.4,0,15.1,6.7,15.1,15.1c0,8.3-6.7,15.1-15.1,15.1H158.1z M200.3,83h2.3v66.7h-2.3v1.8h40v-4h-1.8v2.2h-34.2v-32.4h29.1v2.3h1.8
    v-6.4h-1.8v2.3h-29.1V83h34.2v2.3h1.8v-4.1h-40V83z M61.4,83h17.7v2.3h1.8v-4.1H40.3v4.1H42V83h17.6v66.7h-2.2v1.8h6.3v-1.8h-2.3
    V83z M112,79.9c-20.1,0-36.5,16.3-36.5,36.4c0,20.1,16.4,36.4,36.5,36.4c20,0,36.4-16.3,36.4-36.4C148.4,96.2,132.1,79.9,112,79.9
    z M112,151c-19.2,0-34.7-15.5-34.7-34.7c0-19.2,15.6-34.7,34.7-34.7c19.1,0,34.7,15.5,34.7,34.7C146.7,135.5,131.1,151,112,151z
      M285.9,149.6c-0.4-16.2-11-29.9-25.7-34.7h6.5c9.3,0,16.8-7.6,16.8-16.8c0-9.3-7.5-16.8-16.8-16.8h-21v1.8h3v66.6h-3v1.8h7.8
    v-1.8h-3V115h0.3c18.5,1.2,33,16.2,33.4,34.7H282v1.8h6.3v-1.8H285.9z M250.4,113.2V83.1h16.3c8.4,0,15.1,6.7,15.1,15.1
    c0,8.3-6.7,15.1-15.1,15.1H250.4z M257,73c10.7,0,20-6.7,23.7-16.1v12.9h-2.3v1.8h6.5v-1.8h-2.4V25h2.3v-1.8h-4.1v14.9
    c-3.8-9.4-13-16.2-23.7-16.2c-14.1,0-25.5,11.4-25.5,25.5C231.5,61.6,242.9,73,257,73z M257,23.7c13.1,0,23.7,10.6,23.7,23.7
    c0,13.1-10.6,23.7-23.7,23.7c-13.1,0-23.7-10.6-23.7-23.7C233.3,34.4,243.9,23.7,257,23.7z M201.1,73c10.7,0,20-6.7,23.7-16.1
    v12.9h-2.3v1.8h6.5v-1.8h-2.4V0h-4.1v1.8h2.3v36.3c-3.8-9.4-13-16.2-23.7-16.2c-14.1,0-25.5,11.4-25.5,25.5
    C175.6,61.6,187,73,201.1,73z M201.1,23.7c13.1,0,23.7,10.6,23.7,23.7c0,13.1-10.6,23.7-23.7,23.7c-13.1,0-23.7-10.6-23.7-23.7
    C177.4,34.4,188,23.7,201.1,23.7z M98.3,73c9.2,0,17.3-4.8,21.7-11.9l-1.6-1c-4.2,6.8-11.6,11.1-20.2,11.1
    c-12.8,0-23.3-10.1-23.7-22.8h49.3c0-14.6-11.5-26.4-25.6-26.4c-14.1,0-25.5,11.4-25.5,25.5C72.8,61.6,84.2,73,98.3,73z
      M98.3,23.7c12.9,0,23.5,9.9,23.8,22.8H74.6C74.9,33.9,85.5,23.7,98.3,23.7z M9.1,69.8H6.8V56.9C10.5,66.3,19.7,73,30.6,73
    c14.1,0,25.6-11.4,25.6-25.5c0-14.1-11.5-25.5-25.6-25.5c-10.8,0-20.1,6.8-23.7,16.2V0H2.8v1.8H5v68H2.7v1.8h6.5V69.8z M6.8,46.5
    c0.5-12.6,10.9-22.7,23.7-22.7c13.1,0,23.8,10.6,23.8,23.7c0,13.1-10.7,23.7-23.8,23.7c-13.1,0-23.7-10.6-23.7-23.7V46.5z
      M169.9,43.6v26.2h-2.4v1.8h6.5v-1.8h-2.3V43.6c0-12-9.7-21.7-21.7-21.7c-8.8,0-16.6,5.4-19.9,13.1V23.2h-4.2V25h2.4v44.8h-2.4
    v1.8h6.6v-1.8h-2.4V43.6c0-11,8.9-20,19.9-20C160.9,23.6,169.9,32.6,169.9,43.6z M65.1,69.8h-2.3V38.5c0-7.9,7-14.9,15.4-14.9
    v-1.8c-6.8,0-12.6,4-15.4,9.6v-8.2h-4.2V25H61v44.8h-2.4v1.8h6.5V69.8z"
  />
</svg>