<svg xmlns="http://www.w3.org/2000/svg" viewBox="0 0 794.62 421.81" height="212" width="400" class="logo"><defs><style>.cls-1{fill:url(#linear-gradient);}.cls-2{fill:none;stroke:url(#linear-gradient-2);stroke-miterlimit:10;stroke-width:1.75px;}</style><linearGradient id="linear-gradient" x1="397.33" y1="445.49" x2="397.33" y2="-21.51" gradientUnits="userSpaceOnUse"><stop offset=".05" stop-color="#2178a3"/><stop offset=".96" stop-color="#5f5aa7"/></linearGradient><linearGradient id="linear-gradient-2" y1="420.94" x2="397.33" y2=".88" xlink:href="#linear-gradient"/></defs><path class="cls-1" d="m54.46,314.15c-26.24-4.02-44.71-21.16-44.71-45.79s20.07-42.82,44.43-42.82c22.48,0,40.95,16.6,44.18,37.75l4.8-.55c-3.74-23.82-23.82-42.02-48.98-42.02-27.04,0-49.24,20.34-49.24,47.64s20.06,46.3,48.7,50.6c31.33,4.81,49.26,21.68,49.26,48.44s-21.69,48.72-48.71,48.72c-25.43,0-46.57-19.81-48.44-45.24l-4.82.53c1.86,27.57,25.15,49.52,53.26,49.52,29.71,0,53.53-23.82,53.53-53.53s-19.54-48.18-53.26-53.25Zm732.58,98.22c-1.08-44.44-30.25-82.19-70.68-95.29h17.95c25.69,0,46.3-20.88,46.3-46.31s-20.61-46.3-46.3-46.3h-57.81v4.81h8.29v183.09h-8.29v4.82h21.39v-4.82h-8.29v-95.29h.8c50.86,3.22,90.74,44.44,91.82,95.29h-5.89v4.82h17.4v-4.82h-6.7Zm-97.44-100.11v-82.98h44.71c23.02,0,41.49,18.48,41.49,41.49s-18.47,41.49-41.49,41.49h-44.71Zm-380.6-91.54c-55.4,0-100.36,44.71-100.36,100.1s44.96,100.11,100.36,100.11,100.11-44.7,100.11-100.11-44.97-100.1-100.11-100.1Zm0,195.4c-52.73,0-95.55-42.55-95.55-95.3s42.82-95.28,95.55-95.28,95.3,42.56,95.3,95.28-42.84,95.3-95.3,95.3Zm153.37-99.04h17.93c25.69,0,46.32-20.88,46.32-46.31s-20.62-46.3-46.32-46.3h-57.81v4.81h8.29v183.09h-8.29v4.82h21.4v-4.82h-8.29v-95.29h.8c50.87,3.22,90.74,44.44,91.82,95.29h-5.89v4.82h17.41v-4.82h-6.7c-1.08-44.44-30.25-82.19-70.67-95.29Zm-26.77-4.82v-82.98h44.7c23.02,0,41.49,18.48,41.49,41.49s-18.47,41.49-41.49,41.49h-44.7Zm116.16-83.24h6.44v183.36h-6.44v4.82h110.02v-10.97h-4.82v6.15h-93.96v-89.14h80.03v6.41h4.84v-17.65h-4.84v6.41h-80.03v-89.4h93.96v6.43h4.82v-11.25h-110.02v4.82Zm-381.94,0h48.71v6.43h4.82v-11.25h-111.62v11.25h4.82v-6.43h48.44v183.36h-6.15v4.82h17.4v-4.82h-6.41v-183.36Zm384.25-27.46c29.49,0,54.88-18.3,65.25-44.24v35.49h-6.27v4.91h17.75v-4.91h-6.56V.88h-11.19v4.91h6.27v99.94c-10.37-25.94-35.76-44.51-65.25-44.51-38.76,0-70.18,31.39-70.18,70.18s31.41,70.18,70.18,70.18Zm0-135.45c36.05,0,65.25,29.22,65.25,65.27s-29.21,65.25-65.25,65.25-65.27-29.21-65.27-65.25,29.23-65.27,65.27-65.27Zm153.73,135.45c29.49,0,54.88-18.3,65.26-44.24v35.49h-6.3v4.91h17.76v-4.91h-6.56v-123.14h6.28v-4.92h-11.18v40.96c-10.38-25.94-35.77-44.51-65.26-44.51-38.77,0-70.18,31.39-70.18,70.18s31.41,70.18,70.18,70.18Zm0-135.45c36.03,0,65.26,29.22,65.26,65.27s-29.23,65.25-65.26,65.25-65.26-29.21-65.26-65.25,29.21-65.27,65.26-65.27ZM26,192.82h-6.28v-35.49c10.1,25.94,35.49,44.24,65.25,44.24,38.78,0,70.46-31.41,70.46-70.18s-31.68-70.18-70.46-70.18c-29.76,0-55.14,18.57-65.25,44.51V.88h-11.2v4.91h6.28v187.04h-6.55v4.91h17.75v-4.91Zm-6.28-64.16c1.37-34.67,30.02-62.54,65.25-62.54s65.54,29.22,65.54,65.27-29.49,65.25-65.54,65.25-65.25-29.21-65.25-65.25v-2.73Zm251.48,72.91c25.39,0,47.51-13.1,59.81-32.77l-4.38-2.74c-11.48,18.58-31.96,30.58-55.43,30.58-35.22,0-64.17-27.84-65.26-62.79h135.71c0-40.14-31.66-72.63-70.44-72.63s-70.18,31.39-70.18,70.18,31.39,70.18,70.18,70.18Zm0-135.45c35.49,0,64.72,27.31,65.53,62.81h-130.79c1.09-34.94,30.05-62.81,65.26-62.81Zm196.87,54.62v72.09h-6.55v4.91h17.73v-4.91h-6.27v-72.09c0-33.04-26.76-59.8-59.79-59.8-24.31,0-45.61,14.75-54.62,36.05v-32.22h-11.48v4.92h6.56v123.14h-6.56v4.91h18.02v-4.91h-6.55v-72.09c0-30.31,24.57-54.88,54.62-54.88s54.88,24.57,54.88,54.88Zm-288.08,72.09h-6.27v-86.01c0-21.84,19.38-40.95,42.32-40.95v-4.92c-18.57,0-34.67,10.92-42.32,26.49v-22.67h-11.46v4.92h6.54v123.14h-6.54v4.91h17.73v-4.91Z"/><path class="cls-2" d="m54.46,314.15c-26.24-4.02-44.71-21.16-44.71-45.79s20.07-42.82,44.43-42.82c22.48,0,40.95,16.6,44.18,37.75l4.8-.55c-3.74-23.82-23.82-42.02-48.98-42.02-27.04,0-49.24,20.34-49.24,47.64s20.06,46.3,48.7,50.6c31.33,4.81,49.26,21.68,49.26,48.44s-21.69,48.72-48.71,48.72c-25.43,0-46.57-19.81-48.44-45.24l-4.82.53c1.86,27.57,25.15,49.52,53.26,49.52,29.71,0,53.53-23.82,53.53-53.53s-19.54-48.18-53.26-53.25Zm732.58,98.22c-1.08-44.44-30.25-82.19-70.68-95.29h17.95c25.69,0,46.3-20.88,46.3-46.31s-20.61-46.3-46.3-46.3h-57.81v4.81h8.29v183.09h-8.29v4.82h21.39v-4.82h-8.29v-95.29h.8c50.86,3.22,90.74,44.44,91.82,95.29h-5.89v4.82h17.4v-4.82h-6.7Zm-97.44-100.11v-82.98h44.71c23.02,0,41.49,18.48,41.49,41.49s-18.47,41.49-41.49,41.49h-44.71Zm-380.6-91.54c-55.4,0-100.36,44.71-100.36,100.1s44.96,100.11,100.36,100.11,100.11-44.7,100.11-100.11-44.97-100.1-100.11-100.1Zm0,195.4c-52.73,0-95.55-42.55-95.55-95.3s42.82-95.28,95.55-95.28,95.3,42.56,95.3,95.28-42.84,95.3-95.3,95.3Zm153.37-99.04h17.93c25.69,0,46.32-20.88,46.32-46.31s-20.62-46.3-46.32-46.3h-57.81v4.81h8.29v183.09h-8.29v4.82h21.4v-4.82h-8.29v-95.29h.8c50.87,3.22,90.74,44.44,91.82,95.29h-5.89v4.82h17.41v-4.82h-6.7c-1.08-44.44-30.25-82.19-70.67-95.29Zm-26.77-4.82v-82.98h44.7c23.02,0,41.49,18.48,41.49,41.49s-18.47,41.49-41.49,41.49h-44.7Zm116.16-83.24h6.44v183.36h-6.44v4.82h110.02v-10.97h-4.82v6.15h-93.96v-89.14h80.03v6.41h4.84v-17.65h-4.84v6.41h-80.03v-89.4h93.96v6.43h4.82v-11.25h-110.02v4.82Zm-381.94,0h48.71v6.43h4.82v-11.25h-111.62v11.25h4.82v-6.43h48.44v183.36h-6.15v4.82h17.4v-4.82h-6.41v-183.36Zm384.25-27.46c29.49,0,54.88-18.3,65.25-44.24v35.49h-6.27v4.91h17.75v-4.91h-6.56V.88h-11.19v4.91h6.27v99.94c-10.37-25.94-35.76-44.51-65.25-44.51-38.76,0-70.18,31.39-70.18,70.18s31.41,70.18,70.18,70.18Zm0-135.45c36.05,0,65.25,29.22,65.25,65.27s-29.21,65.25-65.25,65.25-65.27-29.21-65.27-65.25,29.23-65.27,65.27-65.27Zm153.73,135.45c29.49,0,54.88-18.3,65.26-44.24v35.49h-6.3v4.91h17.76v-4.91h-6.56v-123.14h6.28v-4.92h-11.18v40.96c-10.38-25.94-35.77-44.51-65.26-44.51-38.77,0-70.18,31.39-70.18,70.18s31.41,70.18,70.18,70.18Zm0-135.45c36.03,0,65.26,29.22,65.26,65.27s-29.23,65.25-65.26,65.25-65.26-29.21-65.26-65.25,29.21-65.27,65.26-65.27ZM26,192.82h-6.28v-35.49c10.1,25.94,35.49,44.24,65.25,44.24,38.78,0,70.46-31.41,70.46-70.18s-31.68-70.18-70.46-70.18c-29.76,0-55.14,18.57-65.25,44.51V.88h-11.2v4.91h6.28v187.04h-6.55v4.91h17.75v-4.91Zm-6.28-64.16c1.37-34.67,30.02-62.54,65.25-62.54s65.54,29.22,65.54,65.27-29.49,65.25-65.54,65.25-65.25-29.21-65.25-65.25v-2.73Zm251.48,72.91c25.39,0,47.51-13.1,59.81-32.77l-4.38-2.74c-11.48,18.58-31.96,30.58-55.43,30.58-35.22,0-64.17-27.84-65.26-62.79h135.71c0-40.14-31.66-72.63-70.44-72.63s-70.18,31.39-70.18,70.18,31.39,70.18,70.18,70.18Zm0-135.45c35.49,0,64.72,27.31,65.53,62.81h-130.79c1.09-34.94,30.05-62.81,65.26-62.81Zm196.87,54.62v72.09h-6.55v4.91h17.73v-4.91h-6.27v-72.09c0-33.04-26.76-59.8-59.79-59.8-24.31,0-45.61,14.75-54.62,36.05v-32.22h-11.48v4.92h6.56v123.14h-6.56v4.91h18.02v-4.91h-6.55v-72.09c0-30.31,24.57-54.88,54.62-54.88s54.88,24.57,54.88,54.88Zm-288.08,72.09h-6.27v-86.01c0-21.84,19.38-40.95,42.32-40.95v-4.92c-18.57,0-34.67,10.92-42.32,26.49v-22.67h-11.46v4.92h6.54v123.14h-6.54v4.91h17.73v-4.91Z"/></svg>