<svg xmlns="http://www.w3.org/2000/svg" viewBox="0 0 439.84 364.24" height="58" width="70"><defs><style>.cls-1{fill:url(#linear-gradient);}.cls-2{opacity:.3;}.cls-3{fill:none;stroke:#000;stroke-miterlimit:10;stroke-width:10px;}</style><linearGradient id="linear-gradient" x1="208.17" y1="344.74" x2="208.17" y2="0" gradientUnits="userSpaceOnUse"><stop offset=".05" stop-color="#2178a3"/><stop offset=".96" stop-color="#5f5aa7"/></linearGradient></defs><g class="cls-2"><path class="cls-1" d="m162.02,203.46c16.01,16.03,24.02,35.32,24.02,57.93s-8.01,43.34-24.02,59.34c-16.03,16.03-35.81,24.02-59.34,24.02-28.26,0-51.81-11.77-70.64-35.32-15.08-16.95-24.5-36.73-28.26-59.34C0,227.47-.95,208.18.95,192.15c.93-27.31,10.6-54.62,28.96-81.95,18.37-27.31,38.15-50.86,59.34-70.64C110.45,19.78,126.21,6.6,136.59,0l45.21,48.04c-23.55,16.95-46.62,38.63-69.23,64.99-22.61,26.38-35.32,50.4-38.15,72.06,7.53-3.75,16.95-5.65,28.26-5.65,23.53,0,43.31,8.01,59.34,24.02Zm230.3,0c16.01,16.03,24.02,35.32,24.02,57.93s-8.01,43.34-24.02,59.34c-16.03,16.03-35.81,24.02-59.34,24.02-28.26,0-51.81-11.77-70.64-35.32-15.08-16.95-24.51-36.73-28.26-59.34-3.77-22.6-4.72-41.9-2.83-57.93.93-27.31,10.6-54.62,28.96-81.95,18.37-27.31,38.15-50.86,59.34-70.64,21.19-19.78,36.95-32.96,47.33-39.56l45.21,48.04c-23.56,16.95-46.63,38.63-69.23,64.99-22.61,26.38-35.32,50.4-38.15,72.06,7.53-3.75,16.95-5.65,28.26-5.65,23.53,0,43.31,8.01,59.34,24.02Z"/></g><path class="cls-3" d="m182.02,219.46c16.01,16.03,24.02,35.32,24.02,57.93s-8.01,43.34-24.02,59.34c-16.03,16.03-35.81,24.02-59.34,24.02-28.26,0-51.81-11.77-70.64-35.32-15.08-16.95-24.5-36.73-28.26-59.34-3.77-22.6-4.72-41.9-2.83-57.93.93-27.31,10.6-54.62,28.96-81.95,18.37-27.31,38.15-50.86,59.34-70.64,21.19-19.78,36.96-32.96,47.33-39.56l45.21,48.04c-23.55,16.95-46.62,38.63-69.23,64.99-22.61,26.38-35.32,50.4-38.15,72.06,7.53-3.75,16.95-5.65,28.26-5.65,23.53,0,43.31,8.01,59.34,24.02Zm230.3,0c16.01,16.03,24.02,35.32,24.02,57.93s-8.01,43.34-24.02,59.34c-16.03,16.03-35.81,24.02-59.34,24.02-28.26,0-51.81-11.77-70.64-35.32-15.08-16.95-24.51-36.73-28.26-59.34-3.77-22.6-4.72-41.9-2.83-57.93.93-27.31,10.6-54.62,28.96-81.95,18.37-27.31,38.15-50.86,59.34-70.64,21.19-19.78,36.95-32.96,47.33-39.56l45.21,48.04c-23.56,16.95-46.63,38.63-69.23,64.99-22.61,26.38-35.32,50.4-38.15,72.06,7.53-3.75,16.95-5.65,28.26-5.65,23.53,0,43.31,8.01,59.34,24.02Z"/></svg>